<svg height="50" viewBox="0 0 90 50" width="90" xmlns="http://www.w3.org/2000/svg"><g fill="none" fill-rule="evenodd"><path d="m64.1566387 19.9187742h-3.9716129c-.2711613 0-.5022581.1974193-.5446452.4656774l-1.6060645 10.1827742c-.0319355.2009032.1236774.3820645.3263226.3820645h2.0380645c.1892903 0 .3512903-.1381935.3809032-.3263226l.4558065-2.8863871c.0418064-.2688387.2734838-.466258.5446451-.466258h1.2565162c2.6163871 0 4.1254838-1.2658065 4.5203225-3.7741936.1782581-1.0974193.0069678-1.9596774-.5069032-2.5635484-.5638064-.6630967-1.5642581-1.0138064-2.8933548-1.0138064zm.458129 3.7190323c-.2165806 1.4249032-1.3052903 1.4249032-2.3585806 1.4249032h-.5986452l.4209677-2.6610968c.0249678-.1608387.1631613-.2792903.3263226-.2792903h.2746452c.7165161 0 1.3935484 0 1.7430968.4087742.2084516.2438709.2717419.6061935.1921935 1.1067097zm13.6532903-3.439742c.0249678-.1608387.1643226-.2792903.3263226-.279871h1.8348387c.2026452 0 .3582581.181742.3263226.3826452l-1.6072258 10.1821936c-.0418065.2688387-.2729032.466258-.5452258.466258h-1.6385807c-.2026451 0-.358258-.1811613-.3263225-.3820645zm-2.2418709 3.393871c.2038064 0 .3594193.1817419.3280645.3820645l-1.0283226 6.5084516c-.0423871.2688387-.2734839.4662581-.5446452.4662581h-1.7123225c-.2038065 0-.3594194-.1811613-.3274839-.3832258l.0847742-.5283871s-.9389033 1.0887097-2.6320645 1.0887097c-.9865162 0-1.8145162-.2845162-2.3951613-.9673549-.631742-.7426451-.8889678-1.8075484-.7078065-2.9212258.3495484-2.2325806 2.143742-3.824129 4.2450968-3.824129.9162581 0 1.8336774.1997419 2.2453548.7972258l.1335484.1927742.0841936-.531871c.0243871-.1608387.1631613-.2792903.3263225-.2792903zm-2.6506452 3.7010322c.0841935-.5260645-.0307742-1.0033548-.3216774-1.3453548-.2891613-.3385161-.7281291-.5179355-1.2681291-.5179355-1.0829032 0-1.9585161.7530968-2.1309677 1.8301936-.0882581.5283871.0174194 1.0027742.2984516 1.3360645.2833549.3356129.7258065.5127097 1.2768387.5127097 1.099742 0 1.9631613-.7292904 2.1454839-1.8156775zm-60.4520523 3.6923722-.0773025-.0017915h-3.23012907l2.24477417-14.2333549c.0069678-.0429677.0296129-.0830322.0627097-.1114838s.0754839-.0441291.1196129-.0441291h5.4464516c1.808129 0 3.0559355.3762581 3.7074194 1.1189033.3054193.3483871.4999355.7124516.594 1.1130967.0987096.4203871.1004516.9226452.0040645 1.5352259l-.0069678.0447096v.3925162l.3054194.1730322c.0595492.0315893.1162664.0642366.1702167.0979781.0223689-.0978163.0434438-.1974355.0632027-.2988813.0209032-.1091613.0394838-.2154194.0557419-.3193548.3048387.1614193.5655484.3594193.7757419.5980645.6944516.7914193.8303226 1.9167096.567871 3.2643871-.6282581 3.2260645-2.7778065 4.3409032-5.5236774 4.3409032h-.423871c-.3356129 0-.6212903.243871-.6735484.576l-.034258.1858064-.533613 3.3863226-.0278709.144c-.0528387.3309678-.3379355.5748387-.6735484.5748387h-2.834129c-.2508387 0-.4424517-.224129-.4035484-.4726451l.2316774-1.4707742z" fill="#179bd7" fill-rule="nonzero"/><path d="m13.6741871 26.2222581-.8442581 5.3564516h-3.36251613c-.28683871 0-.50632259-.2566452-.46161291-.5411613l2.26858064-14.3796774c.0592258-.3791613.386129-.657871.7693548-.657871h5.4464517c1.8760645 0 3.3421935.396 4.1545161 1.3209677.7368387.8401936.9522581 1.7680646.7385806 3.1308388-.0604144-.0318479-.122497-.0622842-.1862478-.0913089.0635444.0289509.1254349.0593646.1856672.0913089-.0162581.1039354-.0342581.2101935-.0557419.3193548-.7182581 3.6870968-3.1755484 4.9616129-6.3139355 4.9616129h-1.5979355c-.3838065 0-.7072258.2787097-.7670323.6572903zm8.4448765-5.8961827c-.1046465-.0447823-.2136053-.0858155-.3268765-.1233657-.0045876-.0015292-.0091886-.0030539-.0138022-.0045741.0048035.0015244.0095979.0030492.0143828.0045741.1130634.0374813.2218302.0785981.3263005.1233505zm13.7131235-.4073012c1.3290967 0 2.330129.3507097 2.8945161 1.0138064.513871.603871.684 1.4661291.5063226 2.5635484-.3942581 2.5083871-1.9039355 3.7741936-4.519742 3.7741936h-1.2570967c-.2711613 0-.5028388.1974193-.5446452.466258l-.4331613 2.7464517c-.0423871.2688387-.2734839.466258-.5452258.466258h-1.8958065c-.2038064 0-.3594193-.1811613-.3274838-.3820645l1.6060645-10.1827742c.0423871-.2682581.2734839-.4656774.5452258-.4656774zm.458129 3.7190323c.0795484-.5005162.0156774-.8628388-.1927742-1.1067097-.3495484-.4087742-1.026-.4087742-1.7430968-.4087742h-.2746451c-.1625807 0-.3019355.1184516-.3269033.2792903l-.4203871 2.6610968h.5992258c1.0527097 0 2.1414194 0 2.3585807-1.4249032zm11.412-.045871c.2032258 0 .3582581.1817419.3257419.3820645l-1.0277419 6.5084516c-.0429678.2688387-.2729032.4662581-.5452258.4662581h-1.7129032c-.2026452 0-.3582581-.1811613-.3263226-.3832258l.0847742-.5283871s-.9389033 1.0887097-2.6320645 1.0887097c-.9865162 0-1.8156775-.2845162-2.3951613-.9673549-.631742-.7426451-.8901291-1.8075484-.7083871-2.9212258.3495484-2.2325806 2.1443225-3.824129 4.2456774-3.824129.9162581 0 1.8342581.1997419 2.2459355.7972258l.1329677.1927742.0841936-.531871c.0249677-.1608387.1649032-.2792903.3269032-.2792903zm-2.6506452 3.7010322c.0830323-.5260645-.0319355-1.0033548-.3216774-1.3453548-.2891613-.3385161-.728129-.5179355-1.268129-.5179355-1.0829032 0-1.9596774.7530968-2.1309678 1.8301936-.0894193.5283871.0174194 1.0027742.2984516 1.3360645.2833549.3356129.7246452.5127097 1.2768388.5127097 1.0997419 0 1.962-.7292904 2.1454838-1.8156775zm12.7782581-3.7010322c.2676774 0 .423871.3001935.2717419.5196774l-6.3557419 9.1741936c-.1027742.1486451-.2723226.2369032-.4534839.2369032h-1.9085806c-.2688387 0-.4256129-.3025162-.27-.5225807l1.9788387-2.7934838-2.1048387-6.1769033c-.0725807-.2148387.0859355-.4378064.314129-.4378064h1.8778065c.2438709 0 .4592903.160258.5295483.3936774l1.1171613 3.7306452 2.6355484-3.8821936c.1033549-.1515484.2746452-.242129.4569678-.242129z" fill="#253b80"/></g></svg>